<?xml version="1.0" encoding="utf-8"?>
<!-- Generator: Adobe Illustrator 20.0.0, SVG Export Plug-In . SVG Version: 6.00 Build 0)  -->
<svg version="1.1" id="Layer_1" xmlns="http://www.w3.org/2000/svg" xmlns:xlink="http://www.w3.org/1999/xlink" x="0px" y="0px"
	 viewBox="0 0 528 528" style="enable-background:new 0 0 528 528;" xml:space="preserve">
<style type="text/css">
	.st0{fill:#FFFFFF;stroke:#FFFFFF;stroke-width:17;stroke-miterlimit:10;}
	.st1{fill:#083140;}
	.st2{fill:#FFFFFF;stroke:#083140;stroke-width:17;stroke-miterlimit:10;}
	.st3{enable-background:new    ;}
	.st4{fill:#00AEEF;}
	.st5{fill:#FFFF00;}
	.st6{fill:none;stroke:#FFFFFF;stroke-width:2;stroke-miterlimit:10;}
	.st7{fill:#FFFFFF;}
	.st8{fill:none;stroke:#000000;stroke-width:5;stroke-miterlimit:10;}
	.st9{fill:none;stroke:#000000;stroke-width:8;stroke-miterlimit:10;}
	.st10{fill:none;stroke:#000000;stroke-width:3;stroke-miterlimit:10;}
	.st11{fill:none;stroke:#FFFF00;stroke-miterlimit:10;}
	.st12{fill:none;stroke:url(#SVGID_1_);stroke-width:3;stroke-miterlimit:10;}
	.st13{fill:none;stroke:#020202;stroke-width:3;stroke-miterlimit:10;}
	.st14{fill:none;stroke:#FFFFFF;stroke-width:3;stroke-miterlimit:10;}
	.st15{fill:none;stroke:#000000;stroke-width:10;stroke-miterlimit:10;}
</style>
<path class="st1" d="M116.7,371.3L90.4,225.5H76.8v145.8H26V25.7h50.8c60.7,0,86.5,34.3,86.5,99.7c0,34.3-8.9,65.4-28.2,78.5
	l32.4,167.4L116.7,371.3L116.7,371.3z M76.8,178.5c7.1,0,16.5-0.9,24-7.5c7.5-6.6,13.6-19.3,13.6-43.7c0-24.4-6.1-37.6-13.6-44.2
	c-7.5-6.6-16.9-7.1-24-7.1V178.5z"/>
<path class="st1" d="M462,259.9c0-11-0.5-23.5-3.7-33.1c-3.2-9.2-8.3-15.6-16.1-15.6c-12.9,0.5-17,13.8-17,33.6
	c0,11.5,5.1,23.5,12.4,36.4c7.4,12.9,17,26.2,26.7,40.5c11.5,17,23,34.5,31.8,51.5c8.7,17,14.7,34.5,14.7,52.9
	c0,22.5-3.7,43.7-14.3,59.4c-10.6,15.6-27.6,25.8-54.8,25.8c-31.7,0-49.7-12-59.8-30.4c-10.1-18.4-12.4-42.8-12.4-68.1l48.8-4.6
	c0,14.3,0.5,28.5,4.1,39.1c3.2,11.1,8.7,18.4,19.3,18.4c14.7,0,20.2-15.6,20.2-37.3c0-11-5.5-23.9-12.9-37.3
	c-4.1-6.4-8.3-13.3-12.9-20.2c-9.7-13.8-20.2-29.5-31.3-46.5c-11-17-19.3-34.5-24.4-52.5c-2.8-8.7-4.1-17.9-4.1-27.1
	c0-18.4,4.1-38.2,14.7-53.4c10.6-14.7,26.7-25.3,50.2-25.8c29.9-0.5,47.4,12,57.1,29.9c9.7,18.4,12.4,40.9,12.4,59.8L462,259.9z"/>
<g>
	<path class="st1" d="M306.6,368.7c-3.2-3.5-6.5-7-10.2-11.1c-10.2,7.9-24.4,13.7-42.9,13.7c-37.8,0-54.5-22.5-54.5-44.3
		c0-20.7,11.8-35.5,29.7-44.8v-0.9c-6.7-7.4-11.8-19-11.8-30.2c0-19.7,15.5-41.3,46.9-41.3c24.1,0,42.5,14.2,42.5,36.7
		c0,15.8-9.3,29.2-30.9,40.1l-0.2,0.9c9,10,18.6,21.4,26.2,29.2c6.3-9.7,11.1-24.1,13.2-38.1h31.6c-4.2,23.7-12.1,43.9-26,59.4
		c8.8,10,17.9,20.2,27.6,30.6L306.6,368.7L306.6,368.7z M279.9,337.8c-9.7-9.7-22.5-23.9-35.3-38.3c-6.5,4.6-12.3,11.4-12.3,21.6
		c0,13.2,10,24.6,26,24.6C267.6,345.7,275.3,342.3,279.9,337.8z M248.4,247.8c0,7.9,3.7,14.9,10.7,22.5c11.4-7.9,17.2-13.9,17.2-23
		c0-7.4-4.4-15.6-13.7-15.6C253.5,231.8,248.4,239.7,248.4,247.8z"/>
</g>
</svg>
