<?xml version="1.0" encoding="utf-8"?>
<!-- Generator: Adobe Illustrator 20.0.0, SVG Export Plug-In . SVG Version: 6.00 Build 0)  -->
<svg version="1.1" id="Layer_1" xmlns="http://www.w3.org/2000/svg" xmlns:xlink="http://www.w3.org/1999/xlink" x="0px" y="0px"
	 viewBox="0 0 16 16" style="enable-background:new 0 0 16 16;" xml:space="preserve">
<style type="text/css">
	.st0{fill:#083140;}
</style>
<g>
	<path class="st0" d="M3.2,11.2L2.4,6.7H2v4.6H0.4V0.4H2c1.9,0,2.7,1.1,2.7,3.1c0,1.1-0.3,2-0.9,2.5l1,5.2H3.2L3.2,11.2z M2,5.2
		c0.2,0,0.5,0,0.8-0.2C3,4.7,3.2,4.3,3.2,3.6S3,2.4,2.8,2.2C2.5,2,2.2,2,2,2V5.2z"/>
	<path class="st0" d="M14.1,7.7c0-0.3,0-0.7-0.1-1c-0.1-0.3-0.3-0.5-0.5-0.5c-0.4,0-0.5,0.4-0.5,1.1c0,0.4,0.2,0.7,0.4,1.1
		c0.2,0.4,0.5,0.8,0.8,1.3c0.4,0.5,0.7,1.1,1,1.6c0.3,0.5,0.5,1.1,0.5,1.7c0,0.7-0.1,1.4-0.4,1.9c-0.3,0.5-0.9,0.8-1.7,0.8
		c-1,0-1.6-0.4-1.9-1c-0.3-0.6-0.4-1.3-0.4-2.1l1.5-0.1c0,0.4,0,0.9,0.1,1.2c0.1,0.3,0.3,0.6,0.6,0.6c0.5,0,0.6-0.5,0.6-1.2
		c0-0.3-0.2-0.7-0.4-1.2c-0.1-0.2-0.3-0.4-0.4-0.6c-0.3-0.4-0.6-0.9-1-1.5c-0.3-0.5-0.6-1.1-0.8-1.6c-0.1-0.3-0.1-0.6-0.1-0.8
		c0-0.6,0.1-1.2,0.5-1.7c0.3-0.5,0.8-0.8,1.6-0.8c0.9,0,1.5,0.4,1.8,0.9c0.3,0.6,0.4,1.3,0.4,1.9L14.1,7.7z"/>
	<g>
		<path class="st0" d="M9.2,11.1C9.1,11,9,10.9,8.9,10.8c-0.3,0.2-0.8,0.4-1.3,0.4c-1.2,0-1.7-0.7-1.7-1.4c0-0.6,0.4-1.1,0.9-1.4v0
			C6.5,8.2,6.4,7.8,6.4,7.5c0-0.6,0.5-1.3,1.5-1.3c0.8,0,1.3,0.4,1.3,1.1c0,0.5-0.3,0.9-1,1.3l0,0C8.5,8.9,8.8,9.3,9,9.5
			c0.2-0.3,0.3-0.8,0.4-1.2h1c-0.1,0.7-0.4,1.4-0.8,1.9c0.3,0.3,0.6,0.6,0.9,1L9.2,11.1L9.2,11.1z M8.4,10.2C8.1,9.9,7.7,9.4,7.3,9
			C7.1,9.1,6.9,9.3,6.9,9.6c0,0.4,0.3,0.8,0.8,0.8C8,10.4,8.2,10.3,8.4,10.2z M7.4,7.4c0,0.2,0.1,0.5,0.3,0.7
			c0.4-0.2,0.5-0.4,0.5-0.7c0-0.2-0.1-0.5-0.4-0.5C7.5,6.9,7.4,7.1,7.4,7.4z"/>
	</g>
</g>
</svg>
